<?xml version="1.0" encoding="utf-8"?>
<!-- Generator: Adobe Illustrator 24.0.1, SVG Export Plug-In . SVG Version: 6.00 Build 0)  -->
<svg version="1.1" id="Layer_1" xmlns="http://www.w3.org/2000/svg" xmlns:xlink="http://www.w3.org/1999/xlink" x="0px" y="0px"
	 width="56px" height="56px" viewBox="0 0 56 56" style="enable-background:new 0 0 56 56;" xml:space="preserve">
<style type="text/css">
	.st0{fill:#262642;}
	.st1{fill:#483E5B;}
	.st2{fill:url(#SVGID_1_);}
	.st3{fill:#AB78FB;}
	.st4{fill:#795DED;}
</style>
<g>
	<path class="st0" d="M52.5,32.8c0.2,1,0.3,1.9,0.3,2.9c0,4.9-2.2,9.6-6.3,13.2c-3.8,3.4-9.1,5.7-14.7,6.4c-1.2,0.2-2.5,0.2-3.7,0.2
		c-1.3,0-2.5-0.1-3.7-0.2c-5.8-0.7-11.2-3.1-15.1-6.6c-3.9-3.6-6-8.2-6-13c0-1,0.1-2,0.3-3c0.2-1.3,1-2.4,2.2-3l0.5-0.2l-0.3-0.4
		c-0.5-0.7-0.9-1.5-1.2-2.3c-0.5-1.1-0.8-2.1-1.1-3.2c-0.3-1.2-0.4-2.3-0.4-3.5c0-5.5,2.7-10.5,7.6-14.3C15.4,2.2,21.5,0.2,28,0.2
		c7.1,0,13.9,2.4,18.6,6.6c4,3.6,6.2,8.3,6.2,13.2c0,1.2-0.1,2.4-0.4,3.5c0,0.1-0.1,0.2-0.1,0.4c-0.3,1-0.9,1.9-1.8,2.5l-0.4,0.3
		l0.2,0.4c0.5,0.8,0.9,1.6,1.2,2.4C52,30.6,52.3,31.6,52.5,32.8z"/>
	<path class="st1" d="M52,29.3c-0.3-0.8-0.8-1.7-1.2-2.5c1-0.6,1.7-1.6,2-2.8c0-0.1,0.1-0.3,0.1-0.4c0.3-1.2,0.4-2.4,0.4-3.6
		c0-5-2.3-9.8-6.4-13.5C42.1,2.2,35.2-0.3,28-0.3c-6.6,0-12.8,2-17.5,5.6c-5,3.9-7.8,9.1-7.8,14.7c0,1.2,0.1,2.5,0.4,3.6
		c0.2,1.1,0.6,2.2,1.1,3.3c0.3,0.8,0.8,1.6,1.3,2.3C4.2,30,3.3,31.2,3,32.6c-0.2,1-0.3,2-0.3,3.1c0,4.9,2.2,9.6,6.2,13.3
		c3.9,3.7,9.4,6.1,15.3,6.8c1.2,0.2,2.5,0.2,3.8,0.2c1.3,0,2.6-0.1,3.8-0.2c5.8-0.7,11.1-3,15-6.5c4.2-3.7,6.5-8.6,6.5-13.6
		c0-1-0.1-2-0.3-3C52.8,31.5,52.5,30.4,52,29.3z M46,48.4c-3.7,3.3-8.8,5.5-14.3,6.2c-1.2,0.1-2.4,0.2-3.7,0.2
		c-1.2,0-2.4-0.1-3.6-0.2c-5.7-0.7-10.9-3-14.7-6.4C6,44.7,3.9,40.3,3.9,35.7c0-0.9,0.1-1.8,0.2-2.7c0,0,0-0.1,0-0.2c0,0,0,0,0-0.1
		c0.2-1,0.9-1.9,1.8-2.4l1.2-0.6l-0.7-1.1c-0.5-0.7-0.8-1.4-1.2-2.2c-0.4-1-0.8-2-1-3.1c-0.2-1.1-0.4-2.2-0.4-3.4
		c0-5.2,2.6-10.1,7.3-13.7C15.7,2.9,21.7,1,28,1c6.9,0,13.5,2.4,18.1,6.5c3.9,3.5,6,8,6,12.6c0,1.1-0.1,2.3-0.4,3.4
		c0,0.1-0.1,0.2-0.1,0.4c-0.2,0.9-0.7,1.6-1.5,2.1l-1,0.6l0.6,1c0.4,0.7,0.8,1.5,1.1,2.3c0.4,1,0.7,2,0.9,3.1
		c0.2,0.9,0.3,1.9,0.3,2.8C52.1,40.4,49.9,44.9,46,48.4z"/>
	<linearGradient id="SVGID_1_" gradientUnits="userSpaceOnUse" x1="26.8444" y1="37.0655" x2="31.3444" y2="1.257">
		<stop  offset="0" style="stop-color:#795DED"/>
		<stop  offset="0.9693" style="stop-color:#AB78FB"/>
	</linearGradient>
	<path class="st2" d="M48.7,30.7c-0.4-1-0.9-1.9-1.6-2.8c-0.1-0.2-0.3-0.4-0.5-0.6c0-0.1-0.1-0.1-0.2-0.2c-0.1-0.1-0.2-0.3-0.3-0.4
		c-0.1-0.1-0.1-0.1-0.2-0.2c-0.1-0.1-0.2-0.3-0.4-0.4c-0.1-0.1-0.1-0.1-0.2-0.2c-0.2-0.2-0.3-0.4-0.5-0.5c0,0,0,0,0,0
		c-0.2-0.2-0.4-0.4-0.6-0.5c-0.1-0.1-0.1-0.1-0.2-0.2c-0.1-0.1-0.3-0.2-0.4-0.4c-0.1-0.1-0.2-0.1-0.2-0.2c-0.2-0.1-0.3-0.2-0.5-0.3
		c-0.1-0.1-0.1-0.1-0.2-0.2c-0.2-0.1-0.4-0.3-0.6-0.4c0,0,0,0-0.1-0.1c-0.2-0.2-0.5-0.3-0.7-0.5c-0.1,0-0.1-0.1-0.2-0.1
		c-0.2-0.1-0.4-0.2-0.5-0.3c-0.1,0-0.2-0.1-0.3-0.1c-0.2-0.1-0.4-0.2-0.5-0.3c-0.1,0-0.2-0.1-0.3-0.1c-0.2-0.1-0.5-0.2-0.7-0.3
		c0,0-0.1,0-0.1-0.1c-0.2-0.1-0.5-0.2-0.7-0.3c-1.4-0.6-1.8-2.3-0.8-3.4v0c0.6-0.7,1.7-0.9,2.6-0.5c3.3,1.6,5.9,3.9,7.7,6.6
		c0.5,0.8,1.7,0.6,1.9-0.3c0-0.1,0-0.2,0.1-0.3c0.2-0.9,0.3-1.9,0.3-2.8c0-4.1-2-7.9-5.2-10.8c-4-3.6-9.9-5.8-16.4-5.8
		c-11.9,0-21.6,7.5-21.6,16.7c0,1,0.1,1.9,0.3,2.8c0.2,0.9,0.5,1.8,0.9,2.6c0.4,0.8,0.8,1.6,1.3,2.4c0.1,0.2,0.3,0.4,0.5,0.6
		c0,0.1,0.1,0.1,0.1,0.2c0.1,0.1,0.2,0.3,0.3,0.4c0.1,0.1,0.1,0.1,0.2,0.2c0.1,0.1,0.2,0.3,0.4,0.4c0.1,0.1,0.1,0.1,0.2,0.2
		c0.2,0.2,0.4,0.4,0.6,0.6c0,0,0,0,0,0c0.2,0.2,0.4,0.4,0.6,0.5c0.1,0.1,0.1,0.1,0.2,0.2c0.1,0.1,0.3,0.2,0.4,0.4
		c0.1,0.1,0.1,0.1,0.2,0.2c0.1,0.1,0.3,0.2,0.5,0.3c0.1,0.1,0.1,0.1,0.2,0.2c0.2,0.2,0.4,0.3,0.7,0.5c0,0,0,0,0,0
		c0.2,0.2,0.5,0.3,0.7,0.4c0.1,0,0.2,0.1,0.2,0.1c0.2,0.1,0.3,0.2,0.5,0.3c0.1,0,0.2,0.1,0.3,0.1c0.2,0.1,0.4,0.2,0.5,0.3
		c0.1,0,0.2,0.1,0.2,0.1c0.3,0.1,0.5,0.3,0.8,0.4c0,0,0,0,0,0c0.2,0.1,0.5,0.2,0.7,0.3c1.4,0.6,1.8,2.3,0.8,3.4L18,38.8
		c-0.7,0.7-1.8,0.9-2.6,0.5c-2.9-1.6-5.3-3.8-6.9-6.3c-0.5-0.8-1.7-0.6-1.9,0.3c0,0,0,0,0,0c-0.1,0.8-0.2,1.6-0.2,2.4
		c0,4,1.9,7.8,5,10.6c3.3,3.1,8,5.2,13.3,5.8c1.1,0.1,2.2,0.2,3.3,0.2c1.1,0,2.3-0.1,3.4-0.2c10.3-1.2,18.3-8.1,18.3-16.5
		c0-0.8-0.1-1.6-0.2-2.4C49.2,32.4,49,31.6,48.7,30.7z"/>
</g>
<rect x="78.2" y="36.2" class="st3" width="6.4" height="6.4"/>
<rect x="67.6" y="36.2" class="st4" width="6.4" height="6.4"/>
</svg>
